<svg width="232" height="41" viewBox="0 0 232 41" fill="none" xmlns="http://www.w3.org/2000/svg">
<path d="M20 0.614258L24.4903 14.4339H39.0211L27.2654 22.9749L31.7557 36.7946L20 28.2536L8.2443 36.7946L12.7346 22.9749L0.97887 14.4339H15.5097L20 0.614258Z" fill="#647640"/>
<path d="M68 0.614258L72.4903 14.4339H87.0211L75.2654 22.9749L79.7557 36.7946L68 28.2536L56.2443 36.7946L60.7346 22.9749L48.9789 14.4339H63.5097L68 0.614258Z" fill="#647640"/>
<path d="M116 0.614258L120.49 14.4339H135.021L123.265 22.9749L127.756 36.7946L116 28.2536L104.244 36.7946L108.735 22.9749L96.9789 14.4339H111.51L116 0.614258Z" fill="#647640"/>
<path d="M164 0.614258L168.49 14.4339H183.021L171.265 22.9749L175.756 36.7946L164 28.2536L152.244 36.7946L156.735 22.9749L144.979 14.4339H159.51L164 0.614258Z" fill="#647640"/>
<path d="M212 0.614258L216.49 14.4339H231.021L219.265 22.9749L223.756 36.7946L212 28.2536L200.244 36.7946L204.735 22.9749L192.979 14.4339H207.51L212 0.614258Z" fill="#647640"/>
</svg>
